<?xml version="1.0" encoding="UTF-8"?>
<svg id="Layer_2" data-name="Layer 2" xmlns="http://www.w3.org/2000/svg" viewBox="0 0 885.6 86.4">
  <defs>
    <style>
      .cls-1 {
        fill: #fff;
      }

      .cls-2 {
        fill: #5fa2d4;
      }

      .cls-3 {
        fill: #78afdd;
      }

      .cls-4 {
        fill: #90bee5;
      }

      .cls-5 {
        fill: #a9ccee;
      }
    </style>
  </defs>
  <g id="Layer_1-2" data-name="Layer 1">
    <g>
      <polygon class="cls-2" points="853.2 54 842.4 54 842.4 64.8 831.6 64.8 831.6 75.6 842.4 75.6 853.2 75.6 853.2 64.8 864 64.8 864 54 853.2 54"/>
      <g>
        <polygon class="cls-4" points="853.2 0 853.2 10.8 842.4 10.8 842.4 21.6 853.2 21.6 864 21.6 864 10.8 864 0 853.2 0"/>
        <polygon class="cls-4" points="831.6 32.4 820.8 32.4 820.8 43.2 810 43.2 810 54 799.2 54 799.2 64.8 810 64.8 820.8 64.8 820.8 54 831.6 54 831.6 43.2 842.4 43.2 842.4 32.4 842.4 21.6 831.6 21.6 831.6 32.4"/>
      </g>
      <polygon class="cls-5" points="842.4 0 831.6 0 831.6 10.8 820.8 10.8 820.8 21.6 810 21.6 810 32.4 799.2 32.4 799.2 43.2 799.2 54 810 54 810 43.2 820.8 43.2 820.8 32.4 831.6 32.4 831.6 21.6 842.4 21.6 842.4 10.8 853.2 10.8 853.2 0 842.4 0"/>
      <g>
        <rect class="cls-1" x="820.8" y="0" width="10.8" height="10.8"/>
        <rect class="cls-1" x="810" y="10.8" width="10.8" height="10.8"/>
      </g>
      <g>
        <rect class="cls-3" x="864" y="10.8" width="10.8" height="10.8"/>
        <polygon class="cls-3" points="842.4 32.4 842.4 43.2 853.2 43.2 864 43.2 864 32.4 853.2 32.4 842.4 32.4"/>
        <polygon class="cls-3" points="820.8 54 820.8 64.8 810 64.8 810 75.6 820.8 75.6 831.6 75.6 831.6 64.8 842.4 64.8 842.4 54 831.6 54 820.8 54"/>
      </g>
      <g>
        <rect x="864" y="0" width="10.8" height="10.8"/>
        <polygon points="874.8 10.8 874.8 21.6 864 21.6 853.2 21.6 842.4 21.6 842.4 32.4 853.2 32.4 864 32.4 864 43.2 853.2 43.2 842.4 43.2 831.6 43.2 831.6 54 842.4 54 853.2 54 864 54 864 64.8 853.2 64.8 853.2 75.6 842.4 75.6 831.6 75.6 820.8 75.6 810 75.6 810 86.4 820.8 86.4 831.6 86.4 842.4 86.4 853.2 86.4 864 86.4 864 75.6 874.8 75.6 874.8 64.8 874.8 54 874.8 43.2 874.8 32.4 885.6 32.4 885.6 21.6 885.6 10.8 874.8 10.8"/>
        <rect x="799.2" y="64.8" width="10.8" height="10.8"/>
      </g>
      <g>
        <polygon class="cls-5" points="745.2 0 734.4 0 734.4 10.8 723.6 10.8 723.6 21.6 712.8 21.6 712.8 32.4 712.8 43.2 723.6 43.2 723.6 32.4 734.4 32.4 734.4 21.6 745.2 21.6 745.2 10.8 756 10.8 756 0 745.2 0"/>
        <rect class="cls-5" x="702" y="43.2" width="10.8" height="10.8"/>
      </g>
      <g>
        <polygon class="cls-4" points="756 0 756 10.8 745.2 10.8 745.2 21.6 756 21.6 766.8 21.6 766.8 10.8 766.8 0 756 0"/>
        <polygon class="cls-4" points="734.4 32.4 723.6 32.4 723.6 43.2 712.8 43.2 712.8 54 702 54 702 64.8 702 75.6 712.8 75.6 712.8 64.8 723.6 64.8 723.6 54 734.4 54 734.4 43.2 745.2 43.2 745.2 32.4 745.2 21.6 734.4 21.6 734.4 32.4"/>
      </g>
      <g>
        <rect x="766.8" y="0" width="10.8" height="10.8"/>
        <polygon points="777.6 10.8 777.6 21.6 777.6 32.4 777.6 43.2 788.4 43.2 788.4 32.4 788.4 21.6 788.4 10.8 777.6 10.8"/>
        <rect x="766.8" y="43.2" width="10.8" height="10.8"/>
        <polygon points="777.6 75.6 766.8 75.6 756 75.6 745.2 75.6 745.2 64.8 745.2 54 734.4 54 734.4 64.8 734.4 75.6 723.6 75.6 712.8 75.6 702 75.6 702 86.4 712.8 86.4 723.6 86.4 734.4 86.4 745.2 86.4 756 86.4 766.8 86.4 777.6 86.4 788.4 86.4 788.4 75.6 788.4 64.8 788.4 54 777.6 54 777.6 64.8 777.6 75.6"/>
        <rect x="745.2" y="21.6" width="10.8" height="10.8"/>
      </g>
      <g>
        <rect class="cls-2" x="766.8" y="32.4" width="10.8" height="10.8"/>
        <polygon class="cls-2" points="756 43.2 756 54 745.2 54 745.2 64.8 745.2 75.6 756 75.6 766.8 75.6 777.6 75.6 777.6 64.8 777.6 54 766.8 54 766.8 43.2 756 43.2"/>
      </g>
      <g>
        <polygon class="cls-3" points="766.8 10.8 766.8 21.6 756 21.6 756 32.4 745.2 32.4 745.2 43.2 734.4 43.2 734.4 54 745.2 54 756 54 756 43.2 766.8 43.2 766.8 32.4 777.6 32.4 777.6 21.6 777.6 10.8 766.8 10.8"/>
        <polygon class="cls-3" points="723.6 64.8 712.8 64.8 712.8 75.6 723.6 75.6 734.4 75.6 734.4 64.8 734.4 54 723.6 54 723.6 64.8"/>
      </g>
      <rect class="cls-1" x="723.6" y="0" width="10.8" height="10.8"/>
      <g>
        <rect class="cls-1" x="626.4" y="0" width="10.8" height="10.8"/>
        <rect class="cls-1" x="615.6" y="10.8" width="10.8" height="10.8"/>
        <polygon class="cls-5" points="648 0 637.2 0 637.2 10.8 626.4 10.8 626.4 21.6 615.6 21.6 615.6 32.4 604.8 32.4 604.8 43.2 604.8 54 615.6 54 615.6 43.2 626.4 43.2 626.4 32.4 637.2 32.4 637.2 21.6 648 21.6 648 10.8 658.8 10.8 658.8 0 648 0"/>
        <g>
          <polygon class="cls-4" points="658.8 0 658.8 10.8 648 10.8 648 21.6 658.8 21.6 669.6 21.6 669.6 10.8 669.6 0 658.8 0"/>
          <rect class="cls-4" x="637.2" y="21.6" width="10.8" height="10.8"/>
          <polygon class="cls-4" points="626.4 43.2 615.6 43.2 615.6 54 604.8 54 604.8 64.8 615.6 64.8 626.4 64.8 626.4 54 637.2 54 637.2 43.2 637.2 32.4 626.4 32.4 626.4 43.2"/>
        </g>
        <polygon class="cls-2" points="669.6 32.4 669.6 43.2 658.8 43.2 658.8 54 648 54 648 64.8 637.2 64.8 637.2 75.6 648 75.6 658.8 75.6 658.8 64.8 669.6 64.8 669.6 54 680.4 54 680.4 43.2 680.4 32.4 669.6 32.4"/>
        <g>
          <polygon class="cls-3" points="669.6 10.8 669.6 21.6 658.8 21.6 658.8 32.4 648 32.4 648 43.2 648 54 658.8 54 658.8 43.2 669.6 43.2 669.6 32.4 680.4 32.4 680.4 21.6 680.4 10.8 669.6 10.8"/>
          <polygon class="cls-3" points="626.4 54 626.4 64.8 615.6 64.8 615.6 75.6 626.4 75.6 637.2 75.6 637.2 64.8 648 64.8 648 54 637.2 54 626.4 54"/>
        </g>
        <g>
          <rect x="648" y="21.6" width="10.8" height="10.8"/>
          <polygon points="648 43.2 648 32.4 637.2 32.4 637.2 43.2 637.2 54 648 54 648 43.2"/>
          <rect x="669.6" y="0" width="10.8" height="10.8"/>
          <polygon points="680.4 10.8 680.4 21.6 680.4 32.4 680.4 43.2 680.4 54 669.6 54 669.6 64.8 658.8 64.8 658.8 75.6 648 75.6 637.2 75.6 626.4 75.6 615.6 75.6 615.6 86.4 626.4 86.4 637.2 86.4 648 86.4 658.8 86.4 669.6 86.4 669.6 75.6 680.4 75.6 680.4 64.8 691.2 64.8 691.2 54 691.2 43.2 691.2 32.4 691.2 21.6 691.2 10.8 680.4 10.8"/>
          <rect x="604.8" y="64.8" width="10.8" height="10.8"/>
        </g>
      </g>
      <g>
        <g>
          <rect class="cls-1" x="529.2" y="0" width="10.8" height="10.8"/>
          <rect class="cls-1" x="518.4" y="10.8" width="10.8" height="10.8"/>
          <rect class="cls-1" x="507.6" y="21.6" width="10.8" height="10.8"/>
        </g>
        <polygon class="cls-5" points="550.8 0 540 0 540 10.8 529.2 10.8 529.2 21.6 518.4 21.6 518.4 32.4 507.6 32.4 507.6 43.2 507.6 54 518.4 54 518.4 43.2 529.2 43.2 529.2 32.4 540 32.4 540 21.6 550.8 21.6 550.8 10.8 561.6 10.8 561.6 0 550.8 0"/>
        <g>
          <polygon class="cls-4" points="561.6 0 561.6 10.8 550.8 10.8 550.8 21.6 540 21.6 540 32.4 550.8 32.4 561.6 32.4 561.6 21.6 572.4 21.6 572.4 10.8 572.4 0 561.6 0"/>
          <polygon class="cls-4" points="529.2 43.2 518.4 43.2 518.4 54 507.6 54 507.6 64.8 518.4 64.8 529.2 64.8 529.2 54 540 54 540 43.2 540 32.4 529.2 32.4 529.2 43.2"/>
        </g>
        <polygon class="cls-2" points="572.4 54 572.4 43.2 561.6 43.2 561.6 54 550.8 54 550.8 64.8 540 64.8 540 75.6 550.8 75.6 561.6 75.6 572.4 75.6 572.4 64.8 583.2 64.8 583.2 54 572.4 54"/>
        <rect class="cls-3" x="572.4" y="10.8" width="10.8" height="10.8"/>
        <rect class="cls-3" x="561.6" y="21.6" width="10.8" height="10.8"/>
        <polygon class="cls-3" points="550.8 43.2 540 43.2 540 54 529.2 54 529.2 64.8 518.4 64.8 518.4 75.6 529.2 75.6 540 75.6 540 64.8 550.8 64.8 550.8 54 561.6 54 561.6 43.2 550.8 43.2"/>
        <g>
          <rect x="572.4" y="0" width="10.8" height="10.8"/>
          <polygon points="583.2 10.8 583.2 21.6 572.4 21.6 572.4 32.4 561.6 32.4 550.8 32.4 540 32.4 540 43.2 550.8 43.2 561.6 43.2 572.4 43.2 572.4 54 583.2 54 583.2 43.2 583.2 32.4 594 32.4 594 21.6 594 10.8 583.2 10.8"/>
          <polygon points="572.4 64.8 572.4 75.6 561.6 75.6 550.8 75.6 540 75.6 529.2 75.6 518.4 75.6 518.4 86.4 529.2 86.4 540 86.4 550.8 86.4 561.6 86.4 572.4 86.4 583.2 86.4 583.2 75.6 594 75.6 594 64.8 594 54 583.2 54 583.2 64.8 572.4 64.8"/>
          <rect x="507.6" y="64.8" width="10.8" height="10.8"/>
        </g>
      </g>
      <polygon class="cls-5" points="453.6 0 442.8 0 442.8 10.8 432 10.8 432 21.6 421.2 21.6 421.2 32.4 421.2 43.2 432 43.2 432 32.4 442.8 32.4 442.8 21.6 453.6 21.6 453.6 10.8 464.4 10.8 464.4 0 453.6 0"/>
      <polygon class="cls-2" points="475.2 43.2 464.4 43.2 464.4 54 453.6 54 453.6 64.8 442.8 64.8 442.8 75.6 453.6 75.6 464.4 75.6 475.2 75.6 475.2 64.8 486 64.8 486 54 486 43.2 475.2 43.2"/>
      <g>
        <rect class="cls-3" x="475.2" y="10.8" width="10.8" height="10.8"/>
        <polygon class="cls-3" points="453.6 32.4 453.6 43.2 453.6 54 464.4 54 464.4 43.2 475.2 43.2 475.2 32.4 464.4 32.4 453.6 32.4"/>
        <polygon class="cls-3" points="432 54 432 64.8 421.2 64.8 421.2 75.6 432 75.6 442.8 75.6 442.8 64.8 453.6 64.8 453.6 54 442.8 54 432 54"/>
      </g>
      <g>
        <polygon class="cls-4" points="475.2 0 464.4 0 464.4 10.8 453.6 10.8 453.6 21.6 464.4 21.6 475.2 21.6 475.2 10.8 486 10.8 486 0 475.2 0"/>
        <polygon class="cls-4" points="442.8 32.4 432 32.4 432 43.2 442.8 43.2 453.6 43.2 453.6 32.4 453.6 21.6 442.8 21.6 442.8 32.4"/>
        <polygon class="cls-4" points="410.4 54 410.4 64.8 410.4 75.6 421.2 75.6 421.2 64.8 432 64.8 432 54 421.2 54 410.4 54"/>
      </g>
      <g>
        <rect class="cls-1" x="432" y="0" width="10.8" height="10.8"/>
        <rect class="cls-1" x="421.2" y="10.8" width="10.8" height="10.8"/>
      </g>
      <g>
        <polygon points="486 0 486 10.8 486 21.6 475.2 21.6 464.4 21.6 453.6 21.6 453.6 32.4 464.4 32.4 475.2 32.4 475.2 43.2 486 43.2 486 32.4 496.8 32.4 496.8 21.6 496.8 10.8 496.8 0 486 0"/>
        <polygon points="486 64.8 475.2 64.8 475.2 75.6 464.4 75.6 453.6 75.6 442.8 75.6 432 75.6 421.2 75.6 410.4 75.6 410.4 86.4 421.2 86.4 432 86.4 442.8 86.4 453.6 86.4 464.4 86.4 475.2 86.4 486 86.4 486 75.6 496.8 75.6 496.8 64.8 496.8 54 496.8 43.2 486 43.2 486 54 486 64.8"/>
        <polygon points="442.8 54 453.6 54 453.6 43.2 442.8 43.2 432 43.2 421.2 43.2 421.2 54 432 54 442.8 54"/>
      </g>
      <g>
        <g>
          <rect class="cls-1" x="194.4" y="0" width="10.8" height="10.8"/>
          <rect class="cls-1" x="183.6" y="10.8" width="10.8" height="10.8"/>
          <rect class="cls-1" x="172.8" y="21.6" width="10.8" height="10.8"/>
        </g>
        <polygon class="cls-5" points="216 0 205.2 0 205.2 10.8 194.4 10.8 194.4 21.6 183.6 21.6 183.6 32.4 172.8 32.4 172.8 43.2 172.8 54 183.6 54 183.6 43.2 194.4 43.2 194.4 32.4 205.2 32.4 205.2 21.6 216 21.6 216 10.8 226.8 10.8 226.8 0 216 0"/>
        <g>
          <polygon class="cls-4" points="226.8 0 226.8 10.8 216 10.8 216 21.6 205.2 21.6 205.2 32.4 216 32.4 226.8 32.4 226.8 21.6 237.6 21.6 237.6 10.8 237.6 0 226.8 0"/>
          <polygon class="cls-4" points="194.4 43.2 183.6 43.2 183.6 54 172.8 54 172.8 64.8 183.6 64.8 194.4 64.8 194.4 54 205.2 54 205.2 43.2 205.2 32.4 194.4 32.4 194.4 43.2"/>
        </g>
        <g>
          <polygon class="cls-3" points="237.6 10.8 237.6 21.6 226.8 21.6 226.8 32.4 237.6 32.4 248.4 32.4 248.4 21.6 248.4 10.8 237.6 10.8"/>
          <rect class="cls-3" x="216" y="43.2" width="10.8" height="10.8"/>
          <polygon class="cls-3" points="194.4 54 194.4 64.8 183.6 64.8 183.6 75.6 194.4 75.6 205.2 75.6 205.2 64.8 216 64.8 216 54 205.2 54 194.4 54"/>
        </g>
        <polygon class="cls-2" points="237.6 43.2 226.8 43.2 226.8 54 216 54 216 64.8 205.2 64.8 205.2 75.6 216 75.6 226.8 75.6 237.6 75.6 237.6 64.8 248.4 64.8 248.4 54 248.4 43.2 237.6 43.2"/>
        <g>
          <rect x="237.6" y="0" width="10.8" height="10.8"/>
          <polygon points="248.4 10.8 248.4 21.6 248.4 32.4 237.6 32.4 226.8 32.4 216 32.4 205.2 32.4 205.2 43.2 205.2 54 216 54 216 43.2 226.8 43.2 237.6 43.2 248.4 43.2 248.4 54 248.4 64.8 237.6 64.8 237.6 75.6 226.8 75.6 216 75.6 205.2 75.6 194.4 75.6 183.6 75.6 183.6 86.4 194.4 86.4 205.2 86.4 216 86.4 226.8 86.4 237.6 86.4 248.4 86.4 248.4 75.6 259.2 75.6 259.2 64.8 259.2 54 259.2 43.2 259.2 32.4 259.2 21.6 259.2 10.8 248.4 10.8"/>
          <rect x="172.8" y="64.8" width="10.8" height="10.8"/>
        </g>
      </g>
      <g>
        <rect class="cls-2" x="118.8" y="64.8" width="10.8" height="10.8"/>
        <g>
          <rect class="cls-3" x="140.4" y="21.6" width="10.8" height="10.8"/>
          <polygon class="cls-3" points="129.6 43.2 118.8 43.2 118.8 54 108 54 108 64.8 108 75.6 118.8 75.6 118.8 64.8 129.6 64.8 129.6 54 140.4 54 140.4 43.2 140.4 32.4 129.6 32.4 129.6 43.2"/>
        </g>
        <g>
          <polygon class="cls-5" points="129.6 0 118.8 0 118.8 10.8 118.8 21.6 129.6 21.6 129.6 10.8 140.4 10.8 140.4 0 129.6 0"/>
          <rect class="cls-5" x="108" y="21.6" width="10.8" height="10.8"/>
        </g>
        <g>
          <polygon points="151.2 10.8 151.2 21.6 151.2 32.4 140.4 32.4 140.4 43.2 140.4 54 129.6 54 129.6 64.8 129.6 75.6 118.8 75.6 108 75.6 108 86.4 118.8 86.4 129.6 86.4 140.4 86.4 140.4 75.6 140.4 64.8 151.2 64.8 151.2 54 151.2 43.2 162 43.2 162 32.4 162 21.6 162 10.8 151.2 10.8"/>
          <rect x="140.4" y="0" width="10.8" height="10.8"/>
          <rect x="97.2" y="64.8" width="10.8" height="10.8"/>
        </g>
        <polygon class="cls-4" points="140.4 10.8 129.6 10.8 129.6 21.6 118.8 21.6 118.8 32.4 108 32.4 108 43.2 97.2 43.2 97.2 54 97.2 64.8 108 64.8 108 54 118.8 54 118.8 43.2 129.6 43.2 129.6 32.4 140.4 32.4 140.4 21.6 151.2 21.6 151.2 10.8 140.4 10.8"/>
        <polygon class="cls-1" points="21.6 0 10.8 0 10.8 10.8 10.8 21.6 21.6 21.6 21.6 10.8 32.4 10.8 32.4 0 21.6 0"/>
        <polygon class="cls-5" points="32.4 0 32.4 10.8 21.6 10.8 21.6 21.6 10.8 21.6 10.8 32.4 0 32.4 0 43.2 0 54 10.8 54 10.8 43.2 21.6 43.2 21.6 32.4 32.4 32.4 32.4 21.6 43.2 21.6 43.2 10.8 43.2 0 32.4 0"/>
        <g>
          <polygon class="cls-3" points="64.8 10.8 64.8 21.6 54 21.6 54 32.4 43.2 32.4 43.2 43.2 43.2 54 54 54 54 43.2 64.8 43.2 64.8 32.4 75.6 32.4 75.6 21.6 75.6 10.8 64.8 10.8"/>
          <polygon class="cls-3" points="21.6 64.8 10.8 64.8 10.8 75.6 21.6 75.6 32.4 75.6 32.4 64.8 32.4 54 21.6 54 21.6 64.8"/>
        </g>
        <g>
          <rect class="cls-2" x="64.8" y="32.4" width="10.8" height="10.8"/>
          <polygon class="cls-2" points="54 54 43.2 54 43.2 64.8 43.2 75.6 54 75.6 64.8 75.6 64.8 64.8 64.8 54 64.8 43.2 54 43.2 54 54"/>
        </g>
        <g>
          <polygon points="75.6 0 75.6 10.8 75.6 21.6 75.6 32.4 75.6 43.2 64.8 43.2 64.8 54 64.8 64.8 64.8 75.6 54 75.6 43.2 75.6 43.2 64.8 43.2 54 43.2 43.2 32.4 43.2 32.4 54 32.4 64.8 32.4 75.6 21.6 75.6 10.8 75.6 0 75.6 0 86.4 10.8 86.4 21.6 86.4 32.4 86.4 43.2 86.4 54 86.4 64.8 86.4 75.6 86.4 75.6 75.6 75.6 64.8 75.6 54 86.4 54 86.4 43.2 86.4 32.4 86.4 21.6 86.4 10.8 86.4 0 75.6 0"/>
          <polygon points="54 21.6 54 10.8 54 0 43.2 0 43.2 10.8 43.2 21.6 43.2 32.4 54 32.4 54 21.6"/>
        </g>
        <g>
          <polygon class="cls-4" points="32.4 32.4 21.6 32.4 21.6 43.2 10.8 43.2 10.8 54 0 54 0 64.8 0 75.6 10.8 75.6 10.8 64.8 21.6 64.8 21.6 54 32.4 54 32.4 43.2 43.2 43.2 43.2 32.4 43.2 21.6 32.4 21.6 32.4 32.4"/>
          <polygon class="cls-4" points="64.8 0 54 0 54 10.8 54 21.6 64.8 21.6 64.8 10.8 75.6 10.8 75.6 0 64.8 0"/>
        </g>
      </g>
      <polygon class="cls-1" points="291.6 0 280.8 0 280.8 10.8 280.8 21.6 291.6 21.6 291.6 10.8 302.4 10.8 302.4 0 291.6 0"/>
      <polygon class="cls-5" points="302.4 0 302.4 10.8 291.6 10.8 291.6 21.6 280.8 21.6 280.8 32.4 270 32.4 270 43.2 270 54 280.8 54 280.8 43.2 291.6 43.2 291.6 32.4 302.4 32.4 302.4 21.6 313.2 21.6 313.2 10.8 313.2 0 302.4 0"/>
      <g>
        <polygon class="cls-3" points="334.8 10.8 334.8 21.6 324 21.6 324 32.4 313.2 32.4 313.2 43.2 313.2 54 324 54 324 43.2 334.8 43.2 334.8 32.4 345.6 32.4 345.6 21.6 345.6 10.8 334.8 10.8"/>
        <polygon class="cls-3" points="291.6 64.8 280.8 64.8 280.8 75.6 291.6 75.6 302.4 75.6 302.4 64.8 302.4 54 291.6 54 291.6 64.8"/>
      </g>
      <g>
        <rect class="cls-2" x="334.8" y="32.4" width="10.8" height="10.8"/>
        <polygon class="cls-2" points="324 54 313.2 54 313.2 64.8 313.2 75.6 324 75.6 334.8 75.6 334.8 64.8 334.8 54 334.8 43.2 324 43.2 324 54"/>
      </g>
      <g>
        <polygon points="345.6 0 345.6 10.8 345.6 21.6 345.6 32.4 345.6 43.2 334.8 43.2 334.8 54 334.8 64.8 334.8 75.6 324 75.6 313.2 75.6 313.2 64.8 313.2 54 313.2 43.2 302.4 43.2 302.4 54 302.4 64.8 302.4 75.6 291.6 75.6 280.8 75.6 270 75.6 270 86.4 280.8 86.4 291.6 86.4 302.4 86.4 313.2 86.4 324 86.4 334.8 86.4 345.6 86.4 345.6 75.6 345.6 64.8 345.6 54 356.4 54 356.4 43.2 356.4 32.4 356.4 21.6 356.4 10.8 356.4 0 345.6 0"/>
        <polygon points="324 21.6 324 10.8 324 0 313.2 0 313.2 10.8 313.2 21.6 313.2 32.4 324 32.4 324 21.6"/>
      </g>
      <g>
        <polygon class="cls-4" points="302.4 32.4 291.6 32.4 291.6 43.2 280.8 43.2 280.8 54 270 54 270 64.8 270 75.6 280.8 75.6 280.8 64.8 291.6 64.8 291.6 54 302.4 54 302.4 43.2 313.2 43.2 313.2 32.4 313.2 21.6 302.4 21.6 302.4 32.4"/>
        <polygon class="cls-4" points="334.8 0 324 0 324 10.8 324 21.6 334.8 21.6 334.8 10.8 345.6 10.8 345.6 0 334.8 0"/>
      </g>
    </g>
  </g>
</svg>