<?xml version="1.0" encoding="UTF-8"?>
<svg id="Layer_2" data-name="Layer 2" xmlns="http://www.w3.org/2000/svg" viewBox="0 0 539.99 18">
  <defs>
    <style>
      .cls-1 {
        fill: #fff;
      }
    </style>
  </defs>
  <g id="Layer_1-2" data-name="Layer 1">
    <g>
      <path class="cls-1" d="M14.4,14.4h10.8v3.6H0v-3.6H3.6v-3.6h7.2v-3.6H0V3.6H3.6V0H21.6V3.6h3.6v3.6h-3.6v3.6h-7.2v3.6Zm0-7.2V3.6h-3.6v3.6h3.6Z"/>
      <path class="cls-1" d="M50.4,18h-18v-3.6h-3.6V3.6h3.6V0h18V3.6h3.6V14.4h-3.6v3.6Zm-7.2-3.6V3.6h-3.6V14.4h3.6Z"/>
      <path class="cls-1" d="M72,14.4h10.8v3.6h-25.2v-3.6h3.6v-3.6h7.2v-3.6h-10.8V3.6h3.6V0h18V3.6h3.6v3.6h-3.6v3.6h-7.2v3.6Zm0-7.2V3.6h-3.6v3.6h3.6Z"/>
      <path class="cls-1" d="M100.8,14.4v-3.6h-3.6v-3.6h-10.8V3.6h3.6V0h18V3.6h3.6V14.4h-3.6v3.6h-18v-3.6h-3.6v-3.6h10.8v3.6h3.6Zm0-7.2V3.6h-3.6v3.6h3.6Z"/>
      <path class="cls-1" d="M158.4,18h-10.8v-3.6h-3.6v3.6h-10.8V0h10.8V3.6h3.6V0h10.8V3.6h-3.6v3.6h-3.6v3.6h3.6v3.6h3.6v3.6Z"/>
      <path class="cls-1" d="M172.8,14.4v-3.6h-3.6v7.2h-7.2V0h7.2V3.6h3.6v3.6h3.6V3.6h3.6V0h7.2V18h-7.2v-7.2h-3.6v3.6h-3.6Z"/>
      <path class="cls-1" d="M212.39,18h-18v-3.6h-3.6V0h10.8V14.4h3.6V0h10.8V14.4h-3.6v3.6Z"/>
      <path class="cls-1" d="M259.19,18h-21.6V0h21.6V3.6h3.6V14.4h-3.6v3.6Zm-7.2-3.6V3.6h-3.6V14.4h3.6Z"/>
      <path class="cls-1" d="M277.19,14.4h14.4v3.6h-25.2V0h25.2V3.6h-14.4v3.6h10.8v3.6h-10.8v3.6Z"/>
      <path class="cls-1" d="M316.79,18h-21.6v-3.6h14.4v-3.6h-10.8v-3.6h-3.6V3.6h3.6V0h21.6V3.6h-14.4v3.6h10.8v3.6h3.6v3.6h-3.6v3.6Z"/>
      <path class="cls-1" d="M334.79,18h-10.8V0h10.8V18Z"/>
      <path class="cls-1" d="M359.99,18h-18v-3.6h-3.6V3.6h3.6V0h18V3.6h-10.8V14.4h7.2v-3.6h-3.6v-3.6h10.8v7.2h-3.6v3.6Z"/>
      <path class="cls-1" d="M392.39,18h-7.2v-3.6h-7.2v-3.6h-3.6v7.2h-7.2V0h7.2V3.6h7.2v3.6h3.6V0h7.2V18Z"/>
      <path class="cls-1" d="M439.19,18h-7.2v-3.6h-7.2v-3.6h-3.6v7.2h-7.2V0h7.2V3.6h7.2v3.6h3.6V0h7.2V18Z"/>
      <path class="cls-1" d="M453.59,18h-10.8V0h10.8V18Z"/>
      <path class="cls-1" d="M478.79,18h-18v-3.6h-3.6V3.6h3.6V0h18V3.6h-10.8V14.4h7.2v-3.6h-3.6v-3.6h10.8v7.2h-3.6v3.6Z"/>
      <path class="cls-1" d="M511.19,18h-10.8v-7.2h-3.6v7.2h-10.8V0h10.8V7.2h3.6V0h10.8V18Z"/>
      <path class="cls-1" d="M536.39,18h-18v-3.6h3.6V3.6h-7.2V0h25.2V3.6h-7.2V14.4h3.6v3.6Z"/>
    </g>
  </g>
</svg>