<?xml version="1.0" encoding="UTF-8"?>
<svg id="Layer_2" data-name="Layer 2" xmlns="http://www.w3.org/2000/svg" viewBox="0 0 814.8 75.6">
  <defs>
    <style>
      .cls-1 {
        fill: #fff;
      }

      .cls-2 {
        fill: #ed97ce;
      }

      .cls-3 {
        fill: #e77dc2;
      }

      .cls-4 {
        fill: #d73daa;
      }

      .cls-5 {
        fill: #ce009f;
      }

      .cls-6 {
        fill: #f3b1da;
      }

      .cls-7 {
        fill: #f7cbe6;
      }

      .cls-8 {
        fill: #fbe4f2;
      }

      .cls-9 {
        fill: #df60b6;
      }
    </style>
  </defs>
  <g id="Layer_1-2" data-name="Layer 1">
    <g>
      <rect class="cls-1" y="0" width="75.6" height="8.4"/>
      <g>
        <rect class="cls-8" y="8.4" width="84" height="8.4"/>
        <rect class="cls-8" x="92.4" y="8.4" width="75.6" height="8.4"/>
        <rect class="cls-8" x="176.4" y="8.4" width="42" height="8.4"/>
        <rect class="cls-8" x="226.8" y="8.4" width="33.6" height="8.4"/>
        <rect class="cls-8" x="310.8" y="8.4" width="33.6" height="8.4"/>
        <rect class="cls-8" x="352.8" y="8.4" width="33.6" height="8.4"/>
        <rect class="cls-8" x="394.8" y="8.4" width="33.6" height="8.4"/>
        <rect class="cls-8" x="445.2" y="8.4" width="33.6" height="8.4"/>
        <rect class="cls-8" x="596.4" y="8.4" width="42" height="8.4"/>
        <rect class="cls-8" x="646.8" y="8.4" width="75.6" height="8.4"/>
        <rect class="cls-8" x="730.8" y="8.4" width="84" height="8.4"/>
        <rect class="cls-8" x="487.2" y="8.4" width="75.6" height="8.4"/>
        <rect class="cls-8" x="268.8" y="8.4" width="25.2" height="8.4"/>
      </g>
      <rect class="cls-1" x="100.8" y="0" width="67.2" height="8.4"/>
      <rect class="cls-1" x="176.4" width="33.6" height="8.4"/>
      <rect class="cls-1" x="226.8" width="33.6" height="8.4"/>
      <rect class="cls-1" x="268.8" width="25.2" height="8.4"/>
      <rect class="cls-1" x="310.8" width="25.2" height="8.4"/>
      <rect class="cls-1" x="361.2" width="25.2" height="8.4"/>
      <rect class="cls-1" x="394.8" width="33.6" height="8.4"/>
      <rect class="cls-1" x="445.2" width="33.6" height="8.4"/>
      <rect class="cls-1" x="495.6" width="58.8" height="8.4"/>
      <rect class="cls-1" x="604.8" width="33.6" height="8.4"/>
      <rect class="cls-1" x="655.2" width="67.2" height="8.4"/>
      <rect class="cls-1" x="739.2" width="75.6" height="8.4"/>
      <g>
        <rect class="cls-7" y="16.8" width="33.6" height="8.4"/>
        <rect class="cls-7" x="176.4" y="16.8" width="42" height="8.4"/>
        <rect class="cls-7" x="226.8" y="16.8" width="33.6" height="8.4"/>
        <rect class="cls-7" x="42" y="16.8" width="8.4" height="8.4"/>
        <rect class="cls-7" x="58.8" y="16.8" width="25.2" height="8.4"/>
        <rect class="cls-7" x="92.4" y="16.8" width="75.6" height="8.4"/>
        <rect class="cls-7" x="268.8" y="16.8" width="25.2" height="8.4"/>
        <rect class="cls-7" x="310.8" y="16.8" width="33.6" height="8.4"/>
        <rect class="cls-7" x="352.8" y="16.8" width="33.6" height="8.4"/>
        <rect class="cls-7" x="445.2" y="16.8" width="33.6" height="8.4"/>
        <rect class="cls-7" x="394.8" y="16.8" width="42" height="8.4"/>
        <rect class="cls-7" x="487.2" y="16.8" width="75.6" height="8.4"/>
        <rect class="cls-7" x="596.4" y="16.8" width="42" height="8.4"/>
        <rect class="cls-7" x="646.8" y="16.8" width="75.6" height="8.4"/>
        <rect class="cls-7" x="730.8" y="16.8" width="84" height="8.4"/>
      </g>
      <rect class="cls-6" y="25.2" width="33.6" height="8.4"/>
      <rect class="cls-2" y="33.6" width="42" height="8.4"/>
      <rect class="cls-3" y="42" width="84" height="8.4"/>
      <rect class="cls-3" x="92.4" y="42" width="75.6" height="8.4"/>
      <rect class="cls-3" x="176.4" y="42" width="16.8" height="8.4"/>
      <rect class="cls-3" x="201.6" y="42" width="58.8" height="8.4"/>
      <rect class="cls-4" x="176.4" y="58.8" width="16.8" height="8.4"/>
      <rect class="cls-5" x="176.4" y="67.2" width="16.8" height="8.4"/>
      <rect class="cls-5" x="226.8" y="67.2" width="33.6" height="8.4"/>
      <rect class="cls-4" x="218.4" y="58.8" width="42" height="8.4"/>
      <rect class="cls-3" x="268.8" y="42" width="50.4" height="8.4"/>
      <rect class="cls-4" x="268.8" y="58.8" width="25.2" height="8.4"/>
      <rect class="cls-4" x="310.8" y="58.8" width="33.6" height="8.4"/>
      <rect class="cls-5" x="268.8" y="67.2" width="25.2" height="8.4"/>
      <rect class="cls-5" x="319.2" y="67.2" width="25.2" height="8.4"/>
      <rect class="cls-3" x="352.8" y="42" width="33.6" height="8.4"/>
      <rect class="cls-4" x="352.8" y="58.8" width="33.6" height="8.4"/>
      <rect class="cls-5" x="352.8" y="67.2" width="33.6" height="8.4"/>
      <rect class="cls-3" x="394.8" y="42" width="16.8" height="8.4"/>
      <rect class="cls-4" x="394.8" y="58.8" width="16.8" height="8.4"/>
      <rect class="cls-4" x="436.8" y="58.8" width="42" height="8.4"/>
      <rect class="cls-5" x="445.2" y="67.2" width="33.6" height="8.4"/>
      <rect class="cls-4" x="487.2" y="58.8" width="75.6" height="8.4"/>
      <rect class="cls-5" x="487.2" y="67.2" width="67.2" height="8.4"/>
      <rect class="cls-5" x="394.8" y="67.2" width="16.8" height="8.4"/>
      <rect class="cls-3" x="420" y="42" width="58.8" height="8.4"/>
      <rect class="cls-3" x="487.2" y="42" width="33.6" height="8.4"/>
      <rect class="cls-3" x="529.2" y="42" width="33.6" height="8.4"/>
      <rect class="cls-3" x="604.8" y="42" width="33.6" height="8.4"/>
      <rect class="cls-4" x="604.8" y="58.8" width="33.6" height="8.4"/>
      <rect class="cls-5" x="604.8" y="67.2" width="33.6" height="8.4"/>
      <rect class="cls-3" x="646.8" y="42" width="75.6" height="8.4"/>
      <rect class="cls-5" x="646.8" y="67.2" width="67.2" height="8.4"/>
      <rect class="cls-4" x="646.8" y="58.8" width="75.6" height="8.4"/>
      <rect class="cls-6" x="58.8" y="25.2" width="25.2" height="8.4"/>
      <rect class="cls-2" x="50.4" y="33.6" width="33.6" height="8.4"/>
      <rect class="cls-6" x="92.4" y="25.2" width="75.6" height="8.4"/>
      <rect class="cls-2" x="92.4" y="33.6" width="25.2" height="8.4"/>
      <rect class="cls-2" x="142.8" y="33.6" width="25.2" height="8.4"/>
      <rect class="cls-5" x="92.4" y="67.2" width="25.2" height="8.4"/>
      <rect class="cls-5" x="142.8" y="67.2" width="25.2" height="8.4"/>
      <rect class="cls-4" x="92.4" y="58.8" width="25.2" height="8.4"/>
      <rect class="cls-5" y="67.2" width="25.2" height="8.4"/>
      <rect class="cls-5" x="50.4" y="67.2" width="33.6" height="8.4"/>
      <rect class="cls-4" y="58.8" width="25.2" height="8.4"/>
      <rect class="cls-4" x="33.6" y="58.8" width="50.4" height="8.4"/>
      <rect class="cls-4" x="142.8" y="58.8" width="25.2" height="8.4"/>
      <rect class="cls-2" x="176.4" y="33.6" width="16.8" height="8.4"/>
      <rect class="cls-2" x="201.6" y="33.6" width="58.8" height="8.4"/>
      <rect class="cls-2" x="268.8" y="33.6" width="67.2" height="8.4"/>
      <rect class="cls-6" x="176.4" y="25.2" width="42" height="8.4"/>
      <rect class="cls-6" x="226.8" y="25.2" width="33.6" height="8.4"/>
      <rect class="cls-6" x="268.8" y="25.2" width="25.2" height="8.4"/>
      <rect class="cls-6" x="352.8" y="25.2" width="33.6" height="8.4"/>
      <rect class="cls-2" x="352.8" y="33.6" width="33.6" height="8.4"/>
      <rect class="cls-6" x="394.8" y="25.2" width="42" height="8.4"/>
      <rect class="cls-2" x="394.8" y="33.6" width="16.8" height="8.4"/>
      <rect class="cls-2" x="420" y="33.6" width="58.8" height="8.4"/>
      <rect class="cls-6" x="487.2" y="25.2" width="75.6" height="8.4"/>
      <rect class="cls-2" x="487.2" y="33.6" width="33.6" height="8.4"/>
      <rect class="cls-2" x="604.8" y="33.6" width="33.6" height="8.4"/>
      <rect class="cls-2" x="646.8" y="33.6" width="25.2" height="8.4"/>
      <rect class="cls-2" x="756" y="33.6" width="33.6" height="8.4"/>
      <rect class="cls-3" x="756" y="42" width="33.6" height="8.4"/>
      <g>
        <rect class="cls-9" y="50.4" width="58.8" height="8.4"/>
        <rect class="cls-9" x="176.4" y="50.4" width="16.8" height="8.4"/>
        <rect class="cls-9" x="210" y="50.4" width="50.4" height="8.4"/>
        <rect class="cls-9" x="268.8" y="50.4" width="25.2" height="8.4"/>
        <rect class="cls-9" x="302.4" y="50.4" width="25.2" height="8.4"/>
        <rect class="cls-9" x="352.8" y="50.4" width="33.6" height="8.4"/>
        <rect class="cls-9" x="394.8" y="50.4" width="16.8" height="8.4"/>
        <rect class="cls-9" x="428.4" y="50.4" width="50.4" height="8.4"/>
        <rect class="cls-9" x="487.2" y="50.4" width="33.6" height="8.4"/>
        <rect class="cls-9" x="546" y="50.4" width="16.8" height="8.4"/>
        <rect class="cls-9" x="604.8" y="50.4" width="33.6" height="8.4"/>
        <rect class="cls-9" x="697.2" y="50.4" width="25.2" height="8.4"/>
        <rect class="cls-9" x="92.4" y="50.4" width="25.2" height="8.4"/>
        <rect class="cls-9" x="142.8" y="50.4" width="25.2" height="8.4"/>
        <rect class="cls-9" x="756" y="50.4" width="33.6" height="8.4"/>
      </g>
      <rect class="cls-4" x="756" y="58.8" width="33.6" height="8.4"/>
      <rect class="cls-5" x="756" y="67.2" width="33.6" height="8.4"/>
      <rect class="cls-6" x="596.4" y="25.2" width="42" height="8.4"/>
      <rect class="cls-6" x="646.8" y="25.2" width="75.6" height="8.4"/>
      <rect class="cls-6" x="730.8" y="25.2" width="84" height="8.4"/>
      <rect class="cls-6" x="445.2" y="25.2" width="33.6" height="8.4"/>
      <rect class="cls-6" x="302.4" y="25.2" width="42" height="8.4"/>
    </g>
  </g>
</svg>