<?xml version="1.0" encoding="UTF-8"?>
<svg id="Layer_2" data-name="Layer 2" xmlns="http://www.w3.org/2000/svg" viewBox="0 0 244.79 18">
  <defs>
    <style>
      .cls-1 {
        fill: #fff;
      }
    </style>
  </defs>
  <g id="Layer_1-2" data-name="Layer 1">
    <g>
      <path class="cls-1" d="M10.8,18H0V0H10.8V18Z"/>
      <path class="cls-1" d="M39.6,18h-7.2v-3.6h-7.2v-3.6h-3.6v7.2h-7.2V0h7.2V3.6h7.2v3.6h3.6V0h7.2V18Z"/>
      <path class="cls-1" d="M79.2,18h-10.8v-3.6h-3.6v-3.6h-3.6V0h10.8V10.8h3.6V0h10.8V10.8h-3.6v3.6h-3.6v3.6Z"/>
      <path class="cls-1" d="M100.8,18h-10.8V0h10.8V18Z"/>
      <path class="cls-1" d="M126,18h-21.6v-3.6h14.4v-3.6h-10.8v-3.6h-3.6V3.6h3.6V0h21.6V3.6h-14.4v3.6h10.8v3.6h3.6v3.6h-3.6v3.6Z"/>
      <path class="cls-1" d="M154.8,18h-18v-3.6h-3.6V3.6h3.6V0h18V3.6h3.6v3.6h-10.8V3.6h-3.6V14.4h3.6v-3.6h10.8v3.6h-3.6v3.6Z"/>
      <path class="cls-1" d="M183.6,18h-18v-3.6h-3.6V3.6h3.6V0h18V3.6h3.6V14.4h-3.6v3.6Zm-7.2-3.6V3.6h-3.6V14.4h3.6Z"/>
      <path class="cls-1" d="M201.6,14.4v-3.6h-3.6v7.2h-7.2V0h7.2V3.6h3.6v3.6h3.6V3.6h3.6V0h7.2V18h-7.2v-7.2h-3.6v3.6h-3.6Z"/>
      <path class="cls-1" d="M230.39,14.4v-3.6h-3.6v7.2h-7.2V0h7.2V3.6h3.6v3.6h3.6V3.6h3.6V0h7.2V18h-7.2v-7.2h-3.6v3.6h-3.6Z"/>
    </g>
  </g>
</svg>